<svg width="45" height="45" viewBox="0 0 45 45" fill="none" xmlns="http://www.w3.org/2000/svg">
<path d="M37.691 11.6932C37.1068 8.65419 35.596 5.88772 33.3794 3.7983C31.1628 1.70887 28.3567 0.406094 25.3714 0.0804376C22.386 -0.245219 19.378 0.423328 16.7872 1.98833C14.1963 3.55333 12.1585 5.9327 10.9717 8.77855C9.64075 8.62031 8.29252 8.7441 7.00955 9.14233C5.72658 9.54056 4.53586 10.2049 3.5103 11.0945C2.48474 11.9842 1.64591 13.0806 1.04518 14.3165C0.44445 15.5524 0.0944564 16.9019 0.0166271 18.2822C-0.0612023 19.6626 0.134771 21.0448 0.592548 22.3443C1.05032 23.6438 1.76027 24.8332 2.67892 25.8396C3.59757 26.8461 4.7056 27.6484 5.93515 28.1976C7.16471 28.7467 8.48993 29.031 9.82966 29.0332H36.5518C38.6927 29.0357 40.7545 28.1983 42.3195 26.6906C43.8845 25.1829 44.8358 23.1177 44.9807 20.9132C45.1255 18.7087 44.453 16.5298 43.0995 14.8179C41.746 13.106 39.8126 11.989 37.691 11.6932V11.6932ZM23.8939 2.90567C26.6617 2.90508 29.3325 3.95736 31.3958 5.86131C33.459 7.76526 34.7699 10.3873 35.0778 13.226C35.1161 13.5827 35.281 13.9121 35.5407 14.1507C35.8004 14.3893 36.1366 14.5201 36.4843 14.5179H36.5518C38.0438 14.5183 39.4746 15.1304 40.5293 16.2195C41.5841 17.3086 42.1765 18.7856 42.1761 20.3255C42.1757 21.8653 41.5826 23.342 40.5274 24.4306C39.4721 25.5192 38.041 26.1305 36.549 26.1301H9.82966C8.83412 26.1296 7.85003 25.9109 6.94249 25.4886C6.03494 25.0662 5.22464 24.4498 4.56517 23.6801C3.9057 22.9104 3.4121 22.0049 3.11702 21.0236C2.82194 20.0423 2.73211 19.0076 2.85347 17.9878C2.97483 16.968 3.30461 15.9864 3.821 15.1079C4.33739 14.2295 5.02862 13.4742 5.84896 12.8921C6.6693 12.31 7.60005 11.9142 8.57965 11.7311C9.55925 11.5479 10.5654 11.5815 11.5314 11.8297C11.8761 11.9184 12.2405 11.8692 12.5515 11.6921C12.8625 11.5149 13.097 11.2228 13.2079 10.8746C13.9513 8.55552 15.384 6.5373 17.3023 5.10671C19.2207 3.67612 21.5272 2.90595 23.8939 2.90567V2.90567ZM10.5329 42.8227C10.5329 43.4002 10.3106 43.954 9.91498 44.3623C9.51934 44.7706 8.98275 45 8.42324 45C7.86373 45 7.32713 44.7706 6.9315 44.3623C6.53586 43.954 6.3136 43.4002 6.3136 42.8227C6.3136 42.2453 6.53586 41.6915 6.9315 41.2831C7.32713 40.8748 7.86373 40.6454 8.42324 40.6454C8.98275 40.6454 9.51934 40.8748 9.91498 41.2831C10.3106 41.6915 10.5329 42.2453 10.5329 42.8227ZM11.6805 32.0117C12.034 32.1336 12.3261 32.3953 12.4928 32.7393C12.6594 33.0833 12.687 33.4815 12.5694 33.8465L11.163 38.201C11.11 38.3885 11.0209 38.563 10.9011 38.7141C10.7812 38.8651 10.6331 38.9897 10.4655 39.0803C10.2979 39.171 10.1144 39.2258 9.92579 39.2414C9.73722 39.2571 9.54751 39.2334 9.36804 39.1717C9.18856 39.1099 9.02299 39.0114 8.88125 38.8821C8.73951 38.7528 8.62451 38.5953 8.54313 38.419C8.46175 38.2427 8.41566 38.0513 8.40763 37.8563C8.39959 37.6612 8.42978 37.4664 8.49637 37.2837L9.9028 32.9291C10.0209 32.5643 10.2744 32.2628 10.6078 32.0908C10.9411 31.9188 11.3269 31.8904 11.6805 32.0117V32.0117ZM21.7843 42.8227C21.7843 43.4002 21.562 43.954 21.1664 44.3623C20.7708 44.7706 20.2342 45 19.6747 45C19.1151 45 18.5785 44.7706 18.1829 44.3623C17.7873 43.954 17.565 43.4002 17.565 42.8227C17.565 42.2453 17.7873 41.6915 18.1829 41.2831C18.5785 40.8748 19.1151 40.6454 19.6747 40.6454C20.2342 40.6454 20.7708 40.8748 21.1664 41.2831C21.562 41.6915 21.7843 42.2453 21.7843 42.8227V42.8227ZM22.9319 32.0117C23.2854 32.1336 23.5775 32.3953 23.7442 32.7393C23.9108 33.0833 23.9384 33.4815 23.8208 33.8465L22.4144 38.201C22.3614 38.3885 22.2723 38.563 22.1525 38.7141C22.0327 38.8651 21.8845 38.9897 21.7169 39.0803C21.5494 39.171 21.3658 39.2258 21.1772 39.2414C20.9886 39.2571 20.7989 39.2334 20.6195 39.1717C20.44 39.1099 20.2744 39.0114 20.1327 38.8821C19.9909 38.7528 19.8759 38.5953 19.7945 38.419C19.7132 38.2427 19.6671 38.0513 19.659 37.8563C19.651 37.6612 19.6812 37.4664 19.7478 37.2837L21.1542 32.9291C21.2723 32.5643 21.5259 32.2628 21.8592 32.0908C22.1925 31.9188 22.5783 31.8904 22.9319 32.0117V32.0117ZM33.0357 42.8227C33.0357 43.4002 32.8134 43.954 32.4178 44.3623C32.0222 44.7706 31.4856 45 30.9261 45C30.3666 45 29.83 44.7706 29.4343 44.3623C29.0387 43.954 28.8164 43.4002 28.8164 42.8227C28.8164 42.2453 29.0387 41.6915 29.4343 41.2831C29.83 40.8748 30.3666 40.6454 30.9261 40.6454C31.4856 40.6454 32.0222 40.8748 32.4178 41.2831C32.8134 41.6915 33.0357 42.2453 33.0357 42.8227ZM34.1834 32.0117C34.5368 32.1336 34.8289 32.3953 34.9956 32.7393C35.1622 33.0833 35.1898 33.4815 35.0722 33.8465L33.6658 38.201C33.6128 38.3885 33.5237 38.563 33.4039 38.7141C33.2841 38.8651 33.1359 38.9897 32.9684 39.0803C32.8008 39.171 32.6172 39.2258 32.4286 39.2414C32.2401 39.2571 32.0503 39.2334 31.8709 39.1717C31.6914 39.1099 31.5258 39.0114 31.3841 38.8821C31.2423 38.7528 31.1273 38.5953 31.046 38.419C30.9646 38.2427 30.9185 38.0513 30.9105 37.8563C30.9024 37.6612 30.9326 37.4664 30.9992 37.2837L32.4056 32.9291C32.5237 32.5643 32.7773 32.2628 33.1106 32.0908C33.4439 31.9188 33.8297 31.8904 34.1834 32.0117V32.0117Z" fill="white"/>
</svg>
