<svg width="46" height="46" viewBox="0 0 46 46" fill="none" xmlns="http://www.w3.org/2000/svg">
<path d="M23 8.75C15.1425 8.75 8.75 15.1425 8.75 23C8.75 30.8575 15.1425 37.25 23 37.25C30.8575 37.25 37.25 30.8575 37.25 23C37.25 15.1425 30.8575 8.75 23 8.75ZM23 34.25C20.775 34.25 18.5999 33.5902 16.7498 32.354C14.8998 31.1179 13.4578 29.3609 12.6064 27.3052C11.7549 25.2495 11.5321 22.9875 11.9662 20.8052C12.4002 18.6229 13.4717 16.6184 15.045 15.045C16.6184 13.4717 18.6229 12.4002 20.8052 11.9662C22.9875 11.5321 25.2495 11.7549 27.3052 12.6064C29.3609 13.4578 31.1179 14.8998 32.354 16.7498C33.5902 18.5999 34.25 20.775 34.25 23C34.2466 25.9826 33.0603 28.8422 30.9512 30.9512C28.8422 33.0603 25.9826 34.2466 23 34.25Z" fill="black"/>
<path d="M21.5 0.5H24.5V5H21.5V0.5Z" fill="black"/>
<path d="M21.5 41H24.5V45.5H21.5V41Z" fill="black"/>
<path d="M41 21.5H45.5V24.5H41V21.5Z" fill="black"/>
<path d="M0.5 21.5H5V24.5H0.5V21.5Z" fill="black"/>
<path d="M35.4394 37.5607L37.5607 35.4394L40.5607 38.4394L38.4394 40.5607L35.4394 37.5607Z" fill="black"/>
<path d="M5.43941 7.56069L7.56078 5.43932L10.5608 8.43932L8.43941 10.5607L5.43941 7.56069Z" fill="black"/>
<path d="M5.43922 38.4396L8.43922 35.4396L10.5606 37.5608L7.5606 40.5608L5.43922 38.4396Z" fill="black"/>
<path d="M35.4394 8.43932L38.4394 5.43932L40.5608 7.56069L37.5608 10.5607L35.4394 8.43932Z" fill="black"/>
</svg>
